<?xml version="1.0" encoding="UTF-8" standalone="no"?>
<!-- Created with Inkscape (http://www.inkscape.org/) -->

<svg
   width="720"
   height="720"
   viewBox="0 0 720 720"
   version="1.1"
   id="svg1"
   inkscape:version="1.4 (e7c3feb100, 2024-10-09)"
   sodipodi:docname="icon.svg"
   inkscape:export-filename="icon.png"
   inkscape:export-xdpi="42.666668"
   inkscape:export-ydpi="42.666668"
   xmlns:inkscape="http://www.inkscape.org/namespaces/inkscape"
   xmlns:sodipodi="http://sodipodi.sourceforge.net/DTD/sodipodi-0.dtd"
   xmlns="http://www.w3.org/2000/svg"
   xmlns:svg="http://www.w3.org/2000/svg">
  <sodipodi:namedview
     id="namedview1"
     pagecolor="#ffffff"
     bordercolor="#999999"
     borderopacity="1"
     inkscape:showpageshadow="2"
     inkscape:pageopacity="0"
     inkscape:pagecheckerboard="0"
     inkscape:deskcolor="#d1d1d1"
     inkscape:document-units="px"
     inkscape:zoom="0.83674302"
     inkscape:cx="342.39903"
     inkscape:cy="381.24011"
     inkscape:window-width="1860"
     inkscape:window-height="1048"
     inkscape:window-x="0"
     inkscape:window-y="0"
     inkscape:window-maximized="1"
     inkscape:current-layer="layer1" />
  <defs
     id="defs1" />
  <g
     inkscape:label="Warstwa 1"
     inkscape:groupmode="layer"
     id="layer1">
    <g
       inkscape:label="QR Code: https://github.com/macdems/addqrbot"
       transform="matrix(3.7282163,0,0,3.7282163,54.286264,54.286264)"
       id="g8">
      <rect
         x="0"
         y="0"
         width="164"
         height="164"
         style="fill:#ffffff;stroke:none"
         id="rect7" />
      <g
         style="fill:#000000;stroke:none"
         id="g7">
        <path
           d="m 147.6,148 h -3.2 c -0.221,0 -0.4,-0.179 -0.4,-0.4 v -3.2 c 0,-0.221 0.179,-0.4 0.4,-0.4 h 3.2 c 0.221,0 0.4,0.179 0.4,0.4 v 3.2 c 0,0.221 -0.179,0.4 -0.4,0.4 z m -28,0 H 88.4 c -0.2209,0 -0.4,-0.179 -0.4,-0.4 v -3.2 c 0,-0.221 -0.1791,-0.4 -0.4,-0.4 h -3.2 c -0.2209,0 -0.4,0.179 -0.4,0.4 v 3.2 c 0,0.221 -0.1791,0.4 -0.4,0.4 H 68.4 c -0.2209,0 -0.4,-0.179 -0.4,-0.4 v -11.2 c 0,-0.221 0.1791,-0.4 0.4,-0.4 h 3.2 c 0.2209,0 0.4,0.179 0.4,0.4 v 7.2 c 0,0.221 0.1791,0.4 0.4,0.4 h 11.2 c 0.2209,0 0.4,-0.179 0.4,-0.4 v -3.2 c 0,-0.221 0.1791,-0.4 0.4,-0.4 h 3.2 c 0.2209,0 0.4,-0.179 0.4,-0.4 v -3.2 c 0,-0.221 -0.1791,-0.4 -0.4,-0.4 h -7.2 c -0.2209,0 -0.4,-0.179 -0.4,-0.4 v -3.2 c 0,-0.221 0.1791,-0.4 0.4,-0.4 h 3.2 c 0.2209,0 0.4,-0.179 0.4,-0.4 v -3.2 c 0,-0.221 0.1791,-0.4 0.4,-0.4 h 7.2 c 0.2209,0 0.4,0.179 0.4,0.4 v 3.2 c 0,0.221 0.1791,0.4 0.4,0.4 h 11.2 c 0.221,0 0.4,-0.179 0.4,-0.4 v -7.2 c 0,-0.221 0.179,-0.4 0.4,-0.4 h 3.2 c 0.221,0 0.4,0.179 0.4,0.4 v 7.2 c 0,0.221 0.179,0.4 0.4,0.4 h 3.2 c 0.221,0 0.4,-0.179 0.4,-0.4 v -11.2 c 0,-0.221 -0.179,-0.4 -0.4,-0.4 h -3.2 c -0.221,0 -0.4,-0.179 -0.4,-0.4 v -3.2 c 0,-0.221 -0.179,-0.4 -0.4,-0.4 h -3.2 c -0.221,0 -0.4,0.179 -0.4,0.4 v 3.2 c 0,0.221 -0.179,0.4 -0.4,0.4 h -3.2 c -0.221,0 -0.4,0.179 -0.4,0.4 v 7.2 c 0,0.221 -0.1791,0.4 -0.4,0.4 h -3.2 c -0.2209,0 -0.4,-0.179 -0.4,-0.4 v -15.2 c 0,-0.221 -0.1791,-0.4 -0.4,-0.4 h -3.2 c -0.2209,0 -0.4,0.179 -0.4,0.4 v 3.2 c 0,0.221 -0.1791,0.4 -0.4,0.4 h -3.2 c -0.2209,0 -0.4,0.179 -0.4,0.4 v 3.2 c 0,0.221 -0.1791,0.4 -0.4,0.4 h -3.2 c -0.2209,0 -0.4,0.179 -0.4,0.4 v 3.2 c 0,0.221 -0.1791,0.4 -0.4,0.4 h -3.2 c -0.2209,0 -0.4,0.179 -0.4,0.4 v 3.2 c 0,0.221 -0.1791,0.4 -0.4,0.4 h -3.2 c -0.2209,0 -0.4,0.179 -0.4,0.4 v 3.2 c 0,0.221 -0.1791,0.4 -0.4,0.4 H 64.4 c -0.2209,0 -0.4,0.179 -0.4,0.4 v 11.2 c 0,0.221 -0.1791,0.4 -0.4,0.4 h -3.2 c -0.2209,0 -0.4,0.179 -0.4,0.4 v 3.2 c 0,0.221 -0.1791,0.4 -0.4,0.4 h -3.2 c -0.2209,0 -0.4,-0.179 -0.4,-0.4 v -3.2 c 0,-0.221 0.1791,-0.4 0.4,-0.4 h 3.2 c 0.2209,0 0.4,-0.179 0.4,-0.4 v -19.2 c 0,-0.221 -0.1791,-0.4 -0.4,-0.4 h -3.2 c -0.2209,0 -0.4,0.179 -0.4,0.4 v 11.2 c 0,0.221 -0.1791,0.4 -0.4,0.4 h -3.2 c -0.2209,0 -0.4,-0.179 -0.4,-0.4 v -3.2 c 0,-0.221 -0.1791,-0.4 -0.4,-0.4 h -3.2 c -0.2209,0 -0.4,-0.179 -0.4,-0.4 v -3.2 c 0,-0.221 0.1791,-0.4 0.4,-0.4 h 3.2 c 0.2209,0 0.4,-0.179 0.4,-0.4 v -3.2 c 0,-0.221 0.1791,-0.4 0.4,-0.4 h 3.2 c 0.2209,0 0.4,-0.179 0.4,-0.4 v -3.2 c 0,-0.221 -0.1791,-0.4 -0.4,-0.4 h -7.2 c -0.2209,0 -0.4,-0.179 -0.4,-0.4 v -3.2 C 48,116.179 47.8209,116 47.6,116 H 32.4 c -0.2209,0 -0.4,-0.179 -0.4,-0.4 v -3.2 c 0,-0.221 -0.1791,-0.4 -0.4,-0.4 h -3.2 c -0.2209,0 -0.4,-0.179 -0.4,-0.4 v -7.2 C 28,104.179 27.8209,104 27.6,104 H 16.4 C 16.1791,104 16,103.821 16,103.6 V 92.4 C 16,92.1791 16.1791,92 16.4,92 h 3.2 C 19.8209,92 20,91.8209 20,91.6 V 88.4 C 20,88.1791 20.1791,88 20.4,88 H 31.6 C 31.8209,88 32,87.8209 32,87.6 V 80.4 C 32,80.1791 31.8209,80 31.6,80 H 28.4 C 28.1791,80 28,79.8209 28,79.6 V 72.4 C 28,72.1791 27.8209,72 27.6,72 H 20.4 C 20.1791,72 20,71.8209 20,71.6 V 68.4 C 20,68.1791 19.8209,68 19.6,68 H 16.4 C 16.1791,68 16,67.8209 16,67.6 V 64.4 C 16,64.1791 16.1791,64 16.4,64 h 3.2 C 19.8209,64 20,63.8209 20,63.6 V 60.4 C 20,60.1791 19.8209,60 19.6,60 H 16.4 C 16.1791,60 16,59.8209 16,59.6 V 52.4 C 16,52.1791 16.1791,52 16.4,52 h 3.2 C 19.8209,52 20,51.8209 20,51.6 V 48.4 C 20,48.1791 20.1791,48 20.4,48 h 3.2 c 0.2209,0 0.4,0.1791 0.4,0.4 v 11.2 c 0,0.2209 0.1791,0.4 0.4,0.4 h 3.2 C 27.8209,60 28,59.8209 28,59.6 V 56.4 C 28,56.1791 28.1791,56 28.4,56 h 3.2 C 31.8209,56 32,55.8209 32,55.6 V 48.4 C 32,48.1791 32.1791,48 32.4,48 h 3.2 c 0.2209,0 0.4,0.1791 0.4,0.4 v 3.2 c 0,0.2209 0.1791,0.4 0.4,0.4 h 3.2 C 39.8209,52 40,51.8209 40,51.6 V 48.4 C 40,48.1791 40.1791,48 40.4,48 h 3.2 c 0.2209,0 0.4,0.1791 0.4,0.4 v 3.2 c 0,0.2209 0.1791,0.4 0.4,0.4 h 3.2 C 47.8209,52 48,51.8209 48,51.6 V 48.4 C 48,48.1791 48.1791,48 48.4,48 h 7.2 C 55.8209,48 56,47.8209 56,47.6 V 40.4 C 56,40.1791 55.8209,40 55.6,40 H 52.4 C 52.1791,40 52,40.1791 52,40.4 v 3.2 C 52,43.8209 51.8209,44 51.6,44 H 48.4 C 48.1791,44 48,43.8209 48,43.6 V 32.4 C 48,32.1791 48.1791,32 48.4,32 h 7.2 C 55.8209,32 56,31.8209 56,31.6 V 28.4 C 56,28.1791 56.1791,28 56.4,28 h 3.2 C 59.8209,28 60,27.8209 60,27.6 V 24.4 C 60,24.1791 59.8209,24 59.6,24 H 56.4 C 56.1791,24 56,23.8209 56,23.6 V 20.4 C 56,20.1791 55.8209,20 55.6,20 H 52.4 C 52.1791,20 52,19.8209 52,19.6 V 16.4 C 52,16.1791 52.1791,16 52.4,16 h 7.2 c 0.2209,0 0.4,0.1791 0.4,0.4 v 7.2 c 0,0.2209 0.1791,0.4 0.4,0.4 h 7.2 C 67.8209,24 68,23.8209 68,23.6 V 20.4 C 68,20.1791 67.8209,20 67.6,20 H 64.4 C 64.1791,20 64,19.8209 64,19.6 V 16.4 C 64,16.1791 64.1791,16 64.4,16 h 7.2 c 0.2209,0 0.4,0.1791 0.4,0.4 v 7.2 c 0,0.2209 0.1791,0.4 0.4,0.4 h 3.2 c 0.2209,0 0.4,0.1791 0.4,0.4 v 3.2 c 0,0.2209 0.1791,0.4 0.4,0.4 h 3.2 C 79.8209,28 80,27.8209 80,27.6 V 24.4 C 80,24.1791 80.1791,24 80.4,24 h 7.2 C 87.8209,24 88,23.8209 88,23.6 V 16.4 C 88,16.1791 88.1791,16 88.4,16 h 3.2 c 0.2209,0 0.4,0.1791 0.4,0.4 v 3.2 c 0,0.2209 0.1791,0.4 0.4,0.4 h 3.2 c 0.2209,0 0.4,0.1791 0.4,0.4 v 3.2 C 96,23.8209 95.8209,24 95.6,24 H 92.4 C 92.1791,24 92,24.1791 92,24.4 v 3.2 C 92,27.8209 91.8209,28 91.6,28 H 88.4 C 88.1791,28 88,28.1791 88,28.4 v 3.2 C 88,31.8209 87.8209,32 87.6,32 H 84.4 C 84.1791,32 84,31.8209 84,31.6 V 28.4 C 84,28.1791 83.8209,28 83.6,28 H 80.4 C 80.1791,28 80,28.1791 80,28.4 v 3.2 C 80,31.8209 79.8209,32 79.6,32 H 76.4 C 76.1791,32 76,31.8209 76,31.6 V 28.4 C 76,28.1791 75.8209,28 75.6,28 H 64.4 C 64.1791,28 64,28.1791 64,28.4 v 3.2 c 0,0.2209 0.1791,0.4 0.4,0.4 h 3.2 c 0.2209,0 0.4,0.1791 0.4,0.4 v 11.2 c 0,0.2209 0.1791,0.4 0.4,0.4 h 3.2 C 71.8209,44 72,43.8209 72,43.6 V 40.4 C 72,40.1791 72.1791,40 72.4,40 h 3.2 C 75.8209,40 76,39.8209 76,39.6 V 36.4 C 76,36.1791 76.1791,36 76.4,36 H 91.6 C 91.8209,36 92,35.8209 92,35.6 V 32.4 C 92,32.1791 92.1791,32 92.4,32 h 3.2 c 0.2209,0 0.4,0.1791 0.4,0.4 v 3.2 c 0,0.2209 0.1791,0.4 0.4,0.4 h 7.2 c 0.221,0 0.4,-0.1791 0.4,-0.4 v -3.2 c 0,-0.2209 -0.179,-0.4 -0.4,-0.4 h -3.2 c -0.221,0 -0.4,-0.1791 -0.4,-0.4 v -7.2 c 0,-0.2209 0.179,-0.4 0.4,-0.4 h 3.2 c 0.221,0 0.4,0.1791 0.4,0.4 v 3.2 c 0,0.2209 0.179,0.4 0.4,0.4 h 3.2 c 0.221,0 0.4,-0.1791 0.4,-0.4 v -3.2 c 0,-0.2209 0.179,-0.4 0.4,-0.4 h 7.2 c 0.221,0 0.4,0.1791 0.4,0.4 v 3.2 c 0,0.2209 -0.179,0.4 -0.4,0.4 h -3.2 c -0.221,0 -0.4,0.1791 -0.4,0.4 v 3.2 c 0,0.2209 -0.179,0.4 -0.4,0.4 h -3.2 c -0.221,0 -0.4,0.1791 -0.4,0.4 v 3.2 c 0,0.2209 0.179,0.4 0.4,0.4 h 7.2 c 0.221,0 0.4,0.1791 0.4,0.4 v 11.2 c 0,0.2209 0.179,0.4 0.4,0.4 h 3.2 c 0.221,0 0.4,0.1791 0.4,0.4 v 7.2 c 0,0.2209 -0.179,0.4 -0.4,0.4 h -3.2 c -0.221,0 -0.4,-0.1791 -0.4,-0.4 v -7.2 c 0,-0.2209 -0.179,-0.4 -0.4,-0.4 h -3.2 c -0.221,0 -0.4,0.1791 -0.4,0.4 v 15.2 c 0,0.2209 0.179,0.4 0.4,0.4 h 3.2 c 0.221,0 0.4,-0.1791 0.4,-0.4 v -3.2 c 0,-0.2209 0.179,-0.4 0.4,-0.4 h 3.2 c 0.221,0 0.4,0.1791 0.4,0.4 v 3.2 c 0,0.2209 0.179,0.4 0.4,0.4 h 15.2 c 0.221,0 0.4,0.1791 0.4,0.4 v 3.2 c 0,0.2209 0.179,0.4 0.4,0.4 h 3.2 c 0.221,0 0.4,0.1791 0.4,0.4 v 3.2 c 0,0.2209 0.179,0.4 0.4,0.4 h 3.2 c 0.221,0 0.4,0.1791 0.4,0.4 v 3.2 c 0,0.2209 -0.179,0.4 -0.4,0.4 h -7.2 c -0.221,0 -0.4,0.1791 -0.4,0.4 v 3.2 c 0,0.2209 -0.179,0.4 -0.4,0.4 h -3.2 c -0.221,0 -0.4,0.1791 -0.4,0.4 v 3.2 c 0,0.2209 0.179,0.4 0.4,0.4 h 7.2 c 0.221,0 0.4,-0.1791 0.4,-0.4 v -3.2 c 0,-0.2209 0.179,-0.4 0.4,-0.4 h 3.2 c 0.221,0 0.4,0.1791 0.4,0.4 v 15.2 c 0,0.2209 0.179,0.4 0.4,0.4 h 3.2 c 0.221,0 0.4,0.1791 0.4,0.4 v 3.2 c 0,0.2209 -0.179,0.4 -0.4,0.4 h -3.2 c -0.221,0 -0.4,0.179 -0.4,0.4 v 7.2 c 0,0.221 0.179,0.4 0.4,0.4 h 3.2 c 0.221,0 0.4,0.179 0.4,0.4 v 7.2 c 0,0.221 -0.179,0.4 -0.4,0.4 h -3.2 c -0.221,0 -0.4,0.179 -0.4,0.4 v 7.2 c 0,0.221 -0.179,0.4 -0.4,0.4 h -3.2 c -0.221,0 -0.4,-0.179 -0.4,-0.4 v -3.2 c 0,-0.221 -0.179,-0.4 -0.4,-0.4 h -3.2 c -0.221,0 -0.4,0.179 -0.4,0.4 v 3.2 c 0,0.221 -0.179,0.4 -0.4,0.4 h -3.2 c -0.221,0 -0.4,0.179 -0.4,0.4 v 3.2 c 0,0.221 0.179,0.4 0.4,0.4 h 3.2 c 0.221,0 0.4,0.179 0.4,0.4 v 3.2 c 0,0.221 0.179,0.4 0.4,0.4 h 7.2 c 0.221,0 0.4,-0.179 0.4,-0.4 v -3.2 c 0,-0.221 0.179,-0.4 0.4,-0.4 h 3.2 c 0.221,0 0.4,0.179 0.4,0.4 v 3.2 c 0,0.221 -0.179,0.4 -0.4,0.4 h -3.2 c -0.221,0 -0.4,0.179 -0.4,0.4 v 3.2 c 0,0.221 -0.179,0.4 -0.4,0.4 h -7.2 c -0.221,0 -0.4,-0.179 -0.4,-0.4 v -3.2 c 0,-0.221 -0.179,-0.4 -0.4,-0.4 h -3.2 c -0.221,0 -0.4,0.179 -0.4,0.4 v 7.2 c 0,0.221 -0.179,0.4 -0.4,0.4 h -11.2 c -0.221,0 -0.4,-0.179 -0.4,-0.4 v -7.2 c 0,-0.221 -0.179,-0.4 -0.4,-0.4 h -3.2 c -0.221,0 -0.4,0.179 -0.4,0.4 v 11.2 c 0,0.221 0.179,0.4 0.4,0.4 h 3.2 c 0.221,0 0.4,0.179 0.4,0.4 v 3.2 c 0,0.221 -0.179,0.4 -0.4,0.4 z m -76,0 H 16.4 c -0.2209,0 -0.4,-0.179 -0.4,-0.4 v -27.2 c 0,-0.221 0.1791,-0.4 0.4,-0.4 h 27.2 c 0.2209,0 0.4,0.179 0.4,0.4 v 27.2 c 0,0.221 -0.1791,0.4 -0.4,0.4 z m 64.4,-4.4 v -11.2 c 0,-0.221 -0.179,-0.4 -0.4,-0.4 h -3.2 c -0.221,0 -0.4,0.179 -0.4,0.4 v 3.2 c 0,0.221 -0.179,0.4 -0.4,0.4 h -3.2 c -0.221,0 -0.4,0.179 -0.4,0.4 v 3.2 c 0,0.221 0.179,0.4 0.4,0.4 h 3.2 c 0.221,0 0.4,0.179 0.4,0.4 v 3.2 c 0,0.221 0.179,0.4 0.4,0.4 h 3.2 c 0.221,0 0.4,-0.179 0.4,-0.4 z m -8,0 v -3.2 c 0,-0.221 -0.1791,-0.4 -0.4,-0.4 h -3.2 c -0.2209,0 -0.4,-0.179 -0.4,-0.4 v -3.2 c 0,-0.221 -0.1791,-0.4 -0.4,-0.4 h -3.2 c -0.2209,0 -0.4,0.179 -0.4,0.4 v 7.2 c 0,0.221 0.1791,0.4 0.4,0.4 h 7.2 c 0.2209,0 0.4,-0.179 0.4,-0.4 z M 51.6,144 h -3.2 c -0.2209,0 -0.4,-0.179 -0.4,-0.4 v -3.2 c 0,-0.221 0.1791,-0.4 0.4,-0.4 h 3.2 c 0.2209,0 0.4,0.179 0.4,0.4 v 3.2 c 0,0.221 -0.1791,0.4 -0.4,0.4 z M 40,143.6 V 124.4 C 40,124.179 39.8209,124 39.6,124 H 20.4 c -0.2209,0 -0.4,0.179 -0.4,0.4 v 19.2 c 0,0.221 0.1791,0.4 0.4,0.4 h 19.2 c 0.2209,0 0.4,-0.179 0.4,-0.4 z M 35.6,140 H 24.4 c -0.2209,0 -0.4,-0.179 -0.4,-0.4 v -11.2 c 0,-0.221 0.1791,-0.4 0.4,-0.4 h 11.2 c 0.2209,0 0.4,0.179 0.4,0.4 v 11.2 c 0,0.221 -0.1791,0.4 -0.4,0.4 z M 128,127.6 v -11.2 c 0,-0.221 -0.179,-0.4 -0.4,-0.4 h -11.2 c -0.221,0 -0.4,0.179 -0.4,0.4 v 11.2 c 0,0.221 0.179,0.4 0.4,0.4 h 11.2 c 0.221,0 0.4,-0.179 0.4,-0.4 z m -60,0 v -3.2 c 0,-0.221 0.1791,-0.4 0.4,-0.4 h 7.2 c 0.2209,0 0.4,-0.179 0.4,-0.4 v -11.2 c 0,-0.221 -0.1791,-0.4 -0.4,-0.4 h -3.2 c -0.2209,0 -0.4,-0.179 -0.4,-0.4 v -3.2 c 0,-0.221 -0.1791,-0.4 -0.4,-0.4 h -7.2 c -0.2209,0 -0.4,-0.179 -0.4,-0.4 v -3.2 c 0,-0.221 0.1791,-0.4 0.4,-0.4 h 3.2 c 0.2209,0 0.4,-0.179 0.4,-0.4 V 96.4 C 68,96.1791 67.8209,96 67.6,96 H 64.4 C 64.1791,96 64,96.1791 64,96.4 v 3.2 c 0,0.2209 -0.1791,0.4 -0.4,0.4 h -7.2 c -0.2209,0 -0.4,0.179 -0.4,0.4 v 3.2 c 0,0.221 0.1791,0.4 0.4,0.4 h 3.2 c 0.2209,0 0.4,0.179 0.4,0.4 v 3.2 c 0,0.221 -0.1791,0.4 -0.4,0.4 h -3.2 c -0.2209,0 -0.4,0.179 -0.4,0.4 v 7.2 c 0,0.221 0.1791,0.4 0.4,0.4 h 3.2 c 0.2209,0 0.4,0.179 0.4,0.4 v 7.2 c 0,0.221 0.1791,0.4 0.4,0.4 h 3.2 c 0.2209,0 0.4,0.179 0.4,0.4 v 3.2 c 0,0.221 0.1791,0.4 0.4,0.4 h 3.2 c 0.2209,0 0.4,-0.179 0.4,-0.4 z m 55.6,-3.6 h -3.2 c -0.221,0 -0.4,-0.179 -0.4,-0.4 v -3.2 c 0,-0.221 0.179,-0.4 0.4,-0.4 h 3.2 c 0.221,0 0.4,0.179 0.4,0.4 v 3.2 c 0,0.221 -0.179,0.4 -0.4,0.4 z m 12.4,-4.4 v -3.2 c 0,-0.221 0.179,-0.4 0.4,-0.4 h 3.2 c 0.221,0 0.4,-0.179 0.4,-0.4 v -7.2 c 0,-0.221 -0.179,-0.4 -0.4,-0.4 h -3.2 c -0.221,0 -0.4,-0.179 -0.4,-0.4 v -3.2 c 0,-0.221 -0.179,-0.4 -0.4,-0.4 h -3.2 c -0.221,0 -0.4,0.179 -0.4,0.4 v 15.2 c 0,0.221 0.179,0.4 0.4,0.4 h 3.2 c 0.221,0 0.4,-0.179 0.4,-0.4 z m -52,0 v -11.2 c 0,-0.221 -0.1791,-0.4 -0.4,-0.4 h -3.2 c -0.2209,0 -0.4,0.179 -0.4,0.4 v 11.2 c 0,0.221 0.1791,0.4 0.4,0.4 h 3.2 c 0.2209,0 0.4,-0.179 0.4,-0.4 z M 67.6,116 h -3.2 c -0.2209,0 -0.4,-0.179 -0.4,-0.4 v -3.2 c 0,-0.221 0.1791,-0.4 0.4,-0.4 h 3.2 c 0.2209,0 0.4,0.179 0.4,0.4 v 3.2 c 0,0.221 -0.1791,0.4 -0.4,0.4 z m -44,0 h -7.2 c -0.2209,0 -0.4,-0.179 -0.4,-0.4 v -3.2 c 0,-0.221 0.1791,-0.4 0.4,-0.4 h 7.2 c 0.2209,0 0.4,0.179 0.4,0.4 v 3.2 c 0,0.221 -0.1791,0.4 -0.4,0.4 z M 128,111.6 v -3.2 c 0,-0.221 -0.179,-0.4 -0.4,-0.4 h -3.2 c -0.221,0 -0.4,0.179 -0.4,0.4 v 3.2 c 0,0.221 0.179,0.4 0.4,0.4 h 3.2 c 0.221,0 0.4,-0.179 0.4,-0.4 z m -16,0 v -3.2 c 0,-0.221 -0.179,-0.4 -0.4,-0.4 h -7.2 c -0.221,0 -0.4,0.179 -0.4,0.4 v 3.2 c 0,0.221 0.179,0.4 0.4,0.4 h 7.2 c 0.221,0 0.4,-0.179 0.4,-0.4 z m -20,0 v -3.2 c 0,-0.221 -0.1791,-0.4 -0.4,-0.4 h -3.2 c -0.2209,0 -0.4,0.179 -0.4,0.4 v 3.2 c 0,0.221 0.1791,0.4 0.4,0.4 h 3.2 c 0.2209,0 0.4,-0.179 0.4,-0.4 z m -44,0 v -3.2 c 0,-0.221 -0.1791,-0.4 -0.4,-0.4 h -7.2 c -0.2209,0 -0.4,-0.179 -0.4,-0.4 v -3.2 c 0,-0.221 -0.1791,-0.4 -0.4,-0.4 h -3.2 c -0.2209,0 -0.4,0.179 -0.4,0.4 v 7.2 c 0,0.221 0.1791,0.4 0.4,0.4 h 11.2 c 0.2209,0 0.4,-0.179 0.4,-0.4 z m 76,-4 v -7.2 c 0,-0.221 -0.179,-0.4 -0.4,-0.4 h -3.2 c -0.221,0 -0.4,0.179 -0.4,0.4 v 7.2 c 0,0.221 0.179,0.4 0.4,0.4 h 3.2 c 0.221,0 0.4,-0.179 0.4,-0.4 z m -20,0 v -7.2 c 0,-0.221 0.179,-0.4 0.4,-0.4 h 7.2 c 0.221,0 0.4,0.179 0.4,0.4 v 3.2 c 0,0.221 0.179,0.4 0.4,0.4 h 3.2 c 0.221,0 0.4,-0.179 0.4,-0.4 v -3.2 c 0,-0.221 0.179,-0.4 0.4,-0.4 h 3.2 c 0.221,0 0.4,-0.1791 0.4,-0.4 v -7.2 c 0,-0.2209 0.179,-0.4 0.4,-0.4 h 3.2 c 0.221,0 0.4,-0.1791 0.4,-0.4 v -3.2 c 0,-0.2209 0.179,-0.4 0.4,-0.4 h 3.2 c 0.221,0 0.4,0.1791 0.4,0.4 v 7.2 c 0,0.2209 0.179,0.4 0.4,0.4 h 7.2 c 0.221,0 0.4,0.1791 0.4,0.4 v 7.2 c 0,0.221 0.179,0.4 0.4,0.4 h 3.2 c 0.221,0 0.4,-0.179 0.4,-0.4 v -3.2 c 0,-0.221 0.179,-0.4 0.4,-0.4 h 3.2 c 0.221,0 0.4,-0.1791 0.4,-0.4 v -3.2 c 0,-0.2209 -0.179,-0.4 -0.4,-0.4 h -3.2 c -0.221,0 -0.4,-0.1791 -0.4,-0.4 v -7.2 c 0,-0.2209 -0.179,-0.4 -0.4,-0.4 h -3.2 c -0.221,0 -0.4,0.1791 -0.4,0.4 v 3.2 c 0,0.2209 -0.179,0.4 -0.4,0.4 h -3.2 c -0.221,0 -0.4,-0.1791 -0.4,-0.4 v -7.2 c 0,-0.2209 -0.179,-0.4 -0.4,-0.4 h -3.2 c -0.221,0 -0.4,-0.1791 -0.4,-0.4 v -7.2 c 0,-0.2209 -0.179,-0.4 -0.4,-0.4 h -3.2 c -0.221,0 -0.4,0.1791 -0.4,0.4 v 7.2 c 0,0.2209 -0.179,0.4 -0.4,0.4 h -3.2 c -0.221,0 -0.4,0.1791 -0.4,0.4 v 3.2 c 0,0.2209 -0.179,0.4 -0.4,0.4 h -3.2 c -0.221,0 -0.4,-0.1791 -0.4,-0.4 v -3.2 c 0,-0.2209 -0.179,-0.4 -0.4,-0.4 h -3.2 c -0.221,0 -0.4,0.1791 -0.4,0.4 v 7.2 c 0,0.2209 0.179,0.4 0.4,0.4 h 3.2 c 0.221,0 0.4,0.1791 0.4,0.4 v 3.2 c 0,0.2209 -0.179,0.4 -0.4,0.4 h -7.2 c -0.221,0 -0.4,-0.1791 -0.4,-0.4 v -3.2 c 0,-0.2209 -0.179,-0.4 -0.4,-0.4 h -3.2 c -0.221,0 -0.4,0.1791 -0.4,0.4 v 3.2 c 0,0.2209 -0.179,0.4 -0.4,0.4 h -3.2 c -0.221,0 -0.4,0.1791 -0.4,0.4 v 3.2 c 0,0.2209 -0.1791,0.4 -0.4,0.4 h -3.2 c -0.2209,0 -0.4,0.179 -0.4,0.4 v 7.2 c 0,0.221 0.1791,0.4 0.4,0.4 h 7.2 c 0.221,0 0.4,-0.179 0.4,-0.4 z m -24,0 v -3.2 c 0,-0.221 0.1791,-0.4 0.4,-0.4 h 3.2 c 0.2209,0 0.4,-0.179 0.4,-0.4 V 96.4 C 84,96.1791 83.8209,96 83.6,96 H 80.4 C 80.1791,96 80,96.1791 80,96.4 v 3.2 c 0,0.2209 -0.1791,0.4 -0.4,0.4 h -7.2 c -0.2209,0 -0.4,0.179 -0.4,0.4 v 7.2 c 0,0.221 0.1791,0.4 0.4,0.4 h 7.2 c 0.2209,0 0.4,-0.179 0.4,-0.4 z m -24,0 v -3.2 c 0,-0.221 -0.1791,-0.4 -0.4,-0.4 h -3.2 c -0.2209,0 -0.4,0.179 -0.4,0.4 v 3.2 c 0,0.221 0.1791,0.4 0.4,0.4 h 3.2 c 0.2209,0 0.4,-0.179 0.4,-0.4 z m 76,-4 v -3.2 c 0,-0.221 -0.179,-0.4 -0.4,-0.4 h -3.2 c -0.221,0 -0.4,0.179 -0.4,0.4 v 3.2 c 0,0.221 0.179,0.4 0.4,0.4 h 3.2 c 0.221,0 0.4,-0.179 0.4,-0.4 z m -80,0 v -3.2 C 52,100.179 51.8209,100 51.6,100 H 40.4 c -0.2209,0 -0.4,0.179 -0.4,0.4 v 3.2 c 0,0.221 0.1791,0.4 0.4,0.4 h 11.2 c 0.2209,0 0.4,-0.179 0.4,-0.4 z m -20,0 v -3.2 c 0,-0.221 -0.1791,-0.4 -0.4,-0.4 h -3.2 c -0.2209,0 -0.4,0.179 -0.4,0.4 v 3.2 c 0,0.221 0.1791,0.4 0.4,0.4 h 3.2 c 0.2209,0 0.4,-0.179 0.4,-0.4 z m 96,-4 v -3.2 c 0,-0.2209 -0.179,-0.4 -0.4,-0.4 h -3.2 c -0.221,0 -0.4,0.1791 -0.4,0.4 v 3.2 c 0,0.2209 0.179,0.4 0.4,0.4 h 3.2 c 0.221,0 0.4,-0.1791 0.4,-0.4 z m -32,0 V 96.4 C 96,96.1791 95.8209,96 95.6,96 H 92.4 C 92.1791,96 92,96.1791 92,96.4 v 3.2 c 0,0.2209 0.1791,0.4 0.4,0.4 h 3.2 c 0.2209,0 0.4,-0.1791 0.4,-0.4 z m -60,0 V 92.4 C 36,92.1791 35.8209,92 35.6,92 H 20.4 C 20.1791,92 20,92.1791 20,92.4 v 7.2 c 0,0.2209 0.1791,0.4 0.4,0.4 h 7.2 c 0.2209,0 0.4,-0.1791 0.4,-0.4 V 96.4 C 28,96.1791 28.1791,96 28.4,96 h 3.2 c 0.2209,0 0.4,0.1791 0.4,0.4 v 3.2 c 0,0.2209 0.1791,0.4 0.4,0.4 h 3.2 c 0.2209,0 0.4,-0.1791 0.4,-0.4 z m 52,-4 V 88.4 C 88,88.1791 87.8209,88 87.6,88 H 84.4 C 84.1791,88 84,88.1791 84,88.4 v 7.2 c 0,0.2209 0.1791,0.4 0.4,0.4 h 3.2 c 0.2209,0 0.4,-0.1791 0.4,-0.4 z m -24,0 V 92.4 C 64,92.1791 63.8209,92 63.6,92 H 60.4 C 60.1791,92 60,92.1791 60,92.4 v 3.2 c 0,0.2209 0.1791,0.4 0.4,0.4 h 3.2 c 0.2209,0 0.4,-0.1791 0.4,-0.4 z m -12,0 V 92.4 C 52,92.1791 51.8209,92 51.6,92 H 48.4 C 48.1791,92 48,92.1791 48,92.4 v 3.2 c 0,0.2209 0.1791,0.4 0.4,0.4 h 3.2 c 0.2209,0 0.4,-0.1791 0.4,-0.4 z m -8,0 V 92.4 C 44,92.1791 43.8209,92 43.6,92 H 40.4 C 40.1791,92 40,92.1791 40,92.4 v 3.2 c 0,0.2209 0.1791,0.4 0.4,0.4 h 3.2 c 0.2209,0 0.4,-0.1791 0.4,-0.4 z m 52,-4 V 88.4 C 96,88.1791 96.1791,88 96.4,88 h 11.2 c 0.221,0 0.4,-0.1791 0.4,-0.4 V 84.4 C 108,84.1791 107.821,84 107.6,84 H 92.4 C 92.1791,84 92,83.8209 92,83.6 V 80.4 C 92,80.1791 92.1791,80 92.4,80 h 7.2 c 0.2209,0 0.4,-0.1791 0.4,-0.4 V 76.4 C 100,76.1791 99.8209,76 99.6,76 H 96.4 C 96.1791,76 96,75.8209 96,75.6 V 72.4 C 96,72.1791 95.8209,72 95.6,72 H 88.4 C 88.1791,72 88,71.8209 88,71.6 V 68.4 C 88,68.1791 88.1791,68 88.4,68 h 15.2 c 0.221,0 0.4,-0.1791 0.4,-0.4 v -7.2 c 0,-0.2209 0.179,-0.4 0.4,-0.4 h 3.2 c 0.221,0 0.4,-0.1791 0.4,-0.4 V 48.4 c 0,-0.2209 -0.179,-0.4 -0.4,-0.4 h -3.2 c -0.221,0 -0.4,0.1791 -0.4,0.4 v 7.2 c 0,0.2209 -0.179,0.4 -0.4,0.4 h -3.2 c -0.221,0 -0.4,0.1791 -0.4,0.4 v 7.2 c 0,0.2209 -0.1791,0.4 -0.4,0.4 H 96.4 C 96.1791,64 96,63.8209 96,63.6 V 56.4 C 96,56.1791 96.1791,56 96.4,56 h 3.2 c 0.2209,0 0.4,-0.1791 0.4,-0.4 V 52.4 C 100,52.1791 99.8209,52 99.6,52 H 96.4 C 96.1791,52 96,51.8209 96,51.6 V 48.4 C 96,48.1791 95.8209,48 95.6,48 H 88.4 C 88.1791,48 88,48.1791 88,48.4 v 3.2 c 0,0.2209 0.1791,0.4 0.4,0.4 h 3.2 c 0.2209,0 0.4,0.1791 0.4,0.4 v 7.2 C 92,59.8209 91.8209,60 91.6,60 H 88.4 C 88.1791,60 88,59.8209 88,59.6 V 56.4 C 88,56.1791 87.8209,56 87.6,56 H 84.4 C 84.1791,56 84,56.1791 84,56.4 V 71.6 C 84,71.8209 83.8209,72 83.6,72 H 80.4 C 80.1791,72 80,71.8209 80,71.6 V 68.4 C 80,68.1791 79.8209,68 79.6,68 H 76.4 C 76.1791,68 76,68.1791 76,68.4 v 3.2 C 76,71.8209 75.8209,72 75.6,72 H 72.4 C 72.1791,72 72,72.1791 72,72.4 v 3.2 C 72,75.8209 71.8209,76 71.6,76 H 68.4 C 68.1791,76 68,76.1791 68,76.4 v 3.2 c 0,0.2209 0.1791,0.4 0.4,0.4 h 3.2 c 0.2209,0 0.4,0.1791 0.4,0.4 v 3.2 c 0,0.2209 0.1791,0.4 0.4,0.4 h 3.2 C 75.8209,84 76,83.8209 76,83.6 V 76.4 C 76,76.1791 76.1791,76 76.4,76 h 11.2 c 0.2209,0 0.4,0.1791 0.4,0.4 v 3.2 C 88,79.8209 87.8209,80 87.6,80 H 80.4 C 80.1791,80 80,80.1791 80,80.4 v 3.2 c 0,0.2209 0.1791,0.4 0.4,0.4 h 7.2 c 0.2209,0 0.4,0.1791 0.4,0.4 v 3.2 c 0,0.2209 0.1791,0.4 0.4,0.4 h 3.2 c 0.2209,0 0.4,0.1791 0.4,0.4 v 3.2 c 0,0.2209 0.1791,0.4 0.4,0.4 h 3.2 c 0.2209,0 0.4,-0.1791 0.4,-0.4 z m -16,0 V 84.4 C 80,84.1791 79.8209,84 79.6,84 H 76.4 C 76.1791,84 76,84.1791 76,84.4 v 3.2 C 76,87.8209 75.8209,88 75.6,88 H 72.4 C 72.1791,88 72,88.1791 72,88.4 v 3.2 c 0,0.2209 0.1791,0.4 0.4,0.4 h 7.2 c 0.2209,0 0.4,-0.1791 0.4,-0.4 z m -20,0 V 88.4 C 60,88.1791 60.1791,88 60.4,88 h 3.2 C 63.8209,88 64,87.8209 64,87.6 V 84.4 C 64,84.1791 63.8209,84 63.6,84 H 60.4 C 60.1791,84 60,83.8209 60,83.6 V 80.4 C 60,80.1791 59.8209,80 59.6,80 H 56.4 C 56.1791,80 56,80.1791 56,80.4 v 3.2 C 56,83.8209 55.8209,84 55.6,84 H 52.4 C 52.1791,84 52,84.1791 52,84.4 v 3.2 c 0,0.2209 0.1791,0.4 0.4,0.4 h 3.2 c 0.2209,0 0.4,0.1791 0.4,0.4 v 3.2 c 0,0.2209 0.1791,0.4 0.4,0.4 h 3.2 c 0.2209,0 0.4,-0.1791 0.4,-0.4 z m -12,0 V 88.4 C 48,88.1791 47.8209,88 47.6,88 H 44.4 C 44.1791,88 44,88.1791 44,88.4 v 3.2 c 0,0.2209 0.1791,0.4 0.4,0.4 h 3.2 c 0.2209,0 0.4,-0.1791 0.4,-0.4 z m -8,0 V 88.4 C 40,88.1791 39.8209,88 39.6,88 H 36.4 C 36.1791,88 36,88.1791 36,88.4 v 3.2 c 0,0.2209 0.1791,0.4 0.4,0.4 h 3.2 c 0.2209,0 0.4,-0.1791 0.4,-0.4 z m 4,-4 V 84.4 C 44,84.1791 43.8209,84 43.6,84 H 40.4 C 40.1791,84 40,84.1791 40,84.4 v 3.2 c 0,0.2209 0.1791,0.4 0.4,0.4 h 3.2 c 0.2209,0 0.4,-0.1791 0.4,-0.4 z m 76,-4 v -3.2 c 0,-0.2209 -0.179,-0.4 -0.4,-0.4 h -3.2 c -0.221,0 -0.4,0.1791 -0.4,0.4 v 3.2 c 0,0.2209 0.179,0.4 0.4,0.4 h 3.2 c 0.221,0 0.4,-0.1791 0.4,-0.4 z m -8,0 v -3.2 c 0,-0.2209 -0.179,-0.4 -0.4,-0.4 h -3.2 c -0.221,0 -0.4,0.1791 -0.4,0.4 v 3.2 c 0,0.2209 0.179,0.4 0.4,0.4 h 3.2 c 0.221,0 0.4,-0.1791 0.4,-0.4 z m -60,0 V 80.4 C 52,80.1791 51.8209,80 51.6,80 H 48.4 C 48.1791,80 48,80.1791 48,80.4 v 3.2 c 0,0.2209 0.1791,0.4 0.4,0.4 h 3.2 c 0.2209,0 0.4,-0.1791 0.4,-0.4 z m -12,0 V 80.4 C 40,80.1791 40.1791,80 40.4,80 h 7.2 C 47.8209,80 48,79.8209 48,79.6 V 76.4 C 48,76.1791 47.8209,76 47.6,76 H 40.4 C 40.1791,76 40,75.8209 40,75.6 V 72.4 C 40,72.1791 40.1791,72 40.4,72 h 3.2 C 43.8209,72 44,71.8209 44,71.6 V 68.4 C 44,68.1791 43.8209,68 43.6,68 H 36.4 C 36.1791,68 36,68.1791 36,68.4 v 3.2 C 36,71.8209 35.8209,72 35.6,72 H 32.4 C 32.1791,72 32,72.1791 32,72.4 v 3.2 c 0,0.2209 0.1791,0.4 0.4,0.4 h 3.2 c 0.2209,0 0.4,0.1791 0.4,0.4 v 7.2 c 0,0.2209 0.1791,0.4 0.4,0.4 h 3.2 C 39.8209,84 40,83.8209 40,83.6 Z M 19.6,84 H 16.4 C 16.1791,84 16,83.8209 16,83.6 V 80.4 C 16,80.1791 16.1791,80 16.4,80 h 3.2 C 19.8209,80 20,79.8209 20,79.6 V 76.4 C 20,76.1791 20.1791,76 20.4,76 h 3.2 c 0.2209,0 0.4,0.1791 0.4,0.4 v 3.2 C 24,79.8209 23.8209,80 23.6,80 H 20.4 C 20.1791,80 20,80.1791 20,80.4 v 3.2 C 20,83.8209 19.8209,84 19.6,84 Z M 56,79.6 V 68.4 C 56,68.1791 56.1791,68 56.4,68 h 3.2 C 59.8209,68 60,67.8209 60,67.6 V 64.4 C 60,64.1791 59.8209,64 59.6,64 H 56.4 C 56.1791,64 56,63.8209 56,63.6 V 60.4 C 56,60.1791 56.1791,60 56.4,60 h 3.2 C 59.8209,60 60,59.8209 60,59.6 V 52.4 C 60,52.1791 59.8209,52 59.6,52 H 56.4 C 56.1791,52 56,52.1791 56,52.4 v 3.2 C 56,55.8209 55.8209,56 55.6,56 H 52.4 C 52.1791,56 52,55.8209 52,55.6 V 52.4 C 52,52.1791 51.8209,52 51.6,52 H 48.4 C 48.1791,52 48,52.1791 48,52.4 v 7.2 c 0,0.2209 0.1791,0.4 0.4,0.4 h 3.2 c 0.2209,0 0.4,0.1791 0.4,0.4 v 3.2 C 52,63.8209 51.8209,64 51.6,64 H 48.4 C 48.1791,64 48,63.8209 48,63.6 V 60.4 C 48,60.1791 47.8209,60 47.6,60 H 36.4 C 36.1791,60 36,59.8209 36,59.6 V 56.4 C 36,56.1791 35.8209,56 35.6,56 H 32.4 C 32.1791,56 32,56.1791 32,56.4 v 7.2 c 0,0.2209 0.1791,0.4 0.4,0.4 h 11.2 c 0.2209,0 0.4,0.1791 0.4,0.4 v 3.2 c 0,0.2209 0.1791,0.4 0.4,0.4 h 3.2 c 0.2209,0 0.4,0.1791 0.4,0.4 v 3.2 c 0,0.2209 0.1791,0.4 0.4,0.4 h 3.2 c 0.2209,0 0.4,0.1791 0.4,0.4 v 7.2 c 0,0.2209 0.1791,0.4 0.4,0.4 h 3.2 c 0.2209,0 0.4,-0.1791 0.4,-0.4 z m 80,-4 v -7.2 c 0,-0.2209 -0.179,-0.4 -0.4,-0.4 h -7.2 c -0.221,0 -0.4,0.1791 -0.4,0.4 v 3.2 c 0,0.2209 0.179,0.4 0.4,0.4 h 3.2 c 0.221,0 0.4,0.1791 0.4,0.4 v 3.2 c 0,0.2209 0.179,0.4 0.4,0.4 h 3.2 c 0.221,0 0.4,-0.1791 0.4,-0.4 z m -20,0 v -3.2 c 0,-0.2209 -0.179,-0.4 -0.4,-0.4 h -3.2 c -0.221,0 -0.4,0.1791 -0.4,0.4 v 3.2 c 0,0.2209 0.179,0.4 0.4,0.4 h 3.2 c 0.221,0 0.4,-0.1791 0.4,-0.4 z m -8,0 v -3.2 c 0,-0.2209 0.179,-0.4 0.4,-0.4 h 3.2 c 0.221,0 0.4,-0.1791 0.4,-0.4 v -3.2 c 0,-0.2209 -0.179,-0.4 -0.4,-0.4 h -7.2 c -0.221,0 -0.4,0.1791 -0.4,0.4 v 3.2 c 0,0.2209 -0.179,0.4 -0.4,0.4 h -3.2 c -0.221,0 -0.4,0.1791 -0.4,0.4 v 3.2 c 0,0.2209 0.179,0.4 0.4,0.4 h 7.2 c 0.221,0 0.4,-0.1791 0.4,-0.4 z m -40,0 V 72.4 C 68,72.1791 68.1791,72 68.4,72 h 3.2 C 71.8209,72 72,71.8209 72,71.6 V 68.4 C 72,68.1791 71.8209,68 71.6,68 H 68.4 C 68.1791,68 68,67.8209 68,67.6 V 64.4 C 68,64.1791 68.1791,64 68.4,64 h 7.2 C 75.8209,64 76,63.8209 76,63.6 V 60.4 C 76,60.1791 76.1791,60 76.4,60 h 3.2 C 79.8209,60 80,59.8209 80,59.6 V 56.4 C 80,56.1791 79.8209,56 79.6,56 H 76.4 C 76.1791,56 76,55.8209 76,55.6 V 52.4 C 76,52.1791 76.1791,52 76.4,52 h 7.2 C 83.8209,52 84,51.8209 84,51.6 V 44.4 C 84,44.1791 83.8209,44 83.6,44 H 80.4 C 80.1791,44 80,43.8209 80,43.6 V 40.4 C 80,40.1791 79.8209,40 79.6,40 H 76.4 C 76.1791,40 76,40.1791 76,40.4 v 7.2 C 76,47.8209 75.8209,48 75.6,48 H 72.4 C 72.1791,48 72,48.1791 72,48.4 v 7.2 C 72,55.8209 71.8209,56 71.6,56 H 68.4 C 68.1791,56 68,56.1791 68,56.4 v 3.2 C 68,59.8209 67.8209,60 67.6,60 H 60.4 C 60.1791,60 60,60.1791 60,60.4 v 3.2 c 0,0.2209 0.1791,0.4 0.4,0.4 h 3.2 c 0.2209,0 0.4,0.1791 0.4,0.4 v 3.2 C 64,67.8209 63.8209,68 63.6,68 H 60.4 C 60.1791,68 60,68.1791 60,68.4 v 7.2 c 0,0.2209 0.1791,0.4 0.4,0.4 h 7.2 c 0.2209,0 0.4,-0.1791 0.4,-0.4 z m 56,-4 v -3.2 c 0,-0.2209 -0.179,-0.4 -0.4,-0.4 h -3.2 c -0.221,0 -0.4,-0.1791 -0.4,-0.4 v -3.2 c 0,-0.2209 -0.179,-0.4 -0.4,-0.4 h -3.2 c -0.221,0 -0.4,0.1791 -0.4,0.4 v 7.2 c 0,0.2209 0.179,0.4 0.4,0.4 h 7.2 c 0.221,0 0.4,-0.1791 0.4,-0.4 z m -92,0 V 64.4 C 32,64.1791 31.8209,64 31.6,64 H 24.4 C 24.1791,64 24,64.1791 24,64.4 v 3.2 c 0,0.2209 0.1791,0.4 0.4,0.4 h 3.2 c 0.2209,0 0.4,0.1791 0.4,0.4 v 3.2 c 0,0.2209 0.1791,0.4 0.4,0.4 h 3.2 C 31.8209,72 32,71.8209 32,71.6 Z M 143.6,64 h -3.2 c -0.221,0 -0.4,-0.1791 -0.4,-0.4 v -7.2 c 0,-0.2209 -0.179,-0.4 -0.4,-0.4 h -3.2 c -0.221,0 -0.4,0.1791 -0.4,0.4 v 3.2 c 0,0.2209 -0.179,0.4 -0.4,0.4 h -3.2 c -0.221,0 -0.4,-0.1791 -0.4,-0.4 v -7.2 c 0,-0.2209 -0.179,-0.4 -0.4,-0.4 h -7.2 c -0.221,0 -0.4,-0.1791 -0.4,-0.4 v -3.2 c 0,-0.2209 0.179,-0.4 0.4,-0.4 h 7.2 c 0.221,0 0.4,0.1791 0.4,0.4 v 3.2 c 0,0.2209 0.179,0.4 0.4,0.4 h 3.2 c 0.221,0 0.4,-0.1791 0.4,-0.4 v -3.2 c 0,-0.2209 0.179,-0.4 0.4,-0.4 h 3.2 c 0.221,0 0.4,0.1791 0.4,0.4 v 7.2 c 0,0.2209 0.179,0.4 0.4,0.4 h 3.2 c 0.221,0 0.4,0.1791 0.4,0.4 v 7.2 c 0,0.2209 -0.179,0.4 -0.4,0.4 z M 68,55.6 V 52.4 C 68,52.1791 67.8209,52 67.6,52 H 64.4 C 64.1791,52 64,52.1791 64,52.4 v 3.2 c 0,0.2209 0.1791,0.4 0.4,0.4 h 3.2 c 0.2209,0 0.4,-0.1791 0.4,-0.4 z m -24,0 V 52.4 C 44,52.1791 43.8209,52 43.6,52 H 40.4 C 40.1791,52 40,52.1791 40,52.4 v 3.2 c 0,0.2209 0.1791,0.4 0.4,0.4 h 3.2 c 0.2209,0 0.4,-0.1791 0.4,-0.4 z m 20,-4 V 48.4 C 64,48.1791 64.1791,48 64.4,48 h 3.2 C 67.8209,48 68,47.8209 68,47.6 V 44.4 C 68,44.1791 67.8209,44 67.6,44 H 64.4 C 64.1791,44 64,43.8209 64,43.6 V 32.4 C 64,32.1791 63.8209,32 63.6,32 H 56.4 C 56.1791,32 56,32.1791 56,32.4 v 7.2 c 0,0.2209 0.1791,0.4 0.4,0.4 h 3.2 c 0.2209,0 0.4,0.1791 0.4,0.4 v 11.2 c 0,0.2209 0.1791,0.4 0.4,0.4 h 3.2 c 0.2209,0 0.4,-0.1791 0.4,-0.4 z m 48,-4 v -7.2 c 0,-0.2209 -0.179,-0.4 -0.4,-0.4 h -3.2 c -0.221,0 -0.4,0.1791 -0.4,0.4 v 7.2 c 0,0.2209 0.179,0.4 0.4,0.4 h 3.2 c 0.221,0 0.4,-0.1791 0.4,-0.4 z M 147.6,44 H 120.4 C 120.179,44 120,43.8209 120,43.6 V 16.4 c 0,-0.2209 0.179,-0.4 0.4,-0.4 h 27.2 c 0.221,0 0.4,0.1791 0.4,0.4 v 27.2 c 0,0.2209 -0.179,0.4 -0.4,0.4 z M 104,43.6 v -3.2 c 0,-0.2209 -0.179,-0.4 -0.4,-0.4 h -3.2 c -0.221,0 -0.4,0.1791 -0.4,0.4 v 3.2 c 0,0.2209 0.179,0.4 0.4,0.4 h 3.2 c 0.221,0 0.4,-0.1791 0.4,-0.4 z m -8,0 V 36.4 C 96,36.1791 95.8209,36 95.6,36 H 92.4 C 92.1791,36 92,36.1791 92,36.4 v 7.2 c 0,0.2209 0.1791,0.4 0.4,0.4 h 3.2 c 0.2209,0 0.4,-0.1791 0.4,-0.4 z m -8,0 V 40.4 C 88,40.1791 87.8209,40 87.6,40 H 84.4 C 84.1791,40 84,40.1791 84,40.4 v 3.2 c 0,0.2209 0.1791,0.4 0.4,0.4 h 3.2 C 87.8209,44 88,43.8209 88,43.6 Z M 43.6,44 H 16.4 C 16.1791,44 16,43.8209 16,43.6 V 16.4 C 16,16.1791 16.1791,16 16.4,16 h 27.2 c 0.2209,0 0.4,0.1791 0.4,0.4 V 43.6 C 44,43.8209 43.8209,44 43.6,44 Z M 144,39.6 V 20.4 c 0,-0.2209 -0.179,-0.4 -0.4,-0.4 h -19.2 c -0.221,0 -0.4,0.1791 -0.4,0.4 v 19.2 c 0,0.2209 0.179,0.4 0.4,0.4 h 19.2 c 0.221,0 0.4,-0.1791 0.4,-0.4 z m -36,0 v -3.2 c 0,-0.2209 -0.179,-0.4 -0.4,-0.4 h -3.2 c -0.221,0 -0.4,0.1791 -0.4,0.4 v 3.2 c 0,0.2209 0.179,0.4 0.4,0.4 h 3.2 c 0.221,0 0.4,-0.1791 0.4,-0.4 z m -68,0 V 20.4 C 40,20.1791 39.8209,20 39.6,20 H 20.4 C 20.1791,20 20,20.1791 20,20.4 v 19.2 c 0,0.2209 0.1791,0.4 0.4,0.4 H 39.6 C 39.8209,40 40,39.8209 40,39.6 Z M 139.6,36 H 128.4 C 128.179,36 128,35.8209 128,35.6 V 24.4 c 0,-0.2209 0.179,-0.4 0.4,-0.4 h 11.2 c 0.221,0 0.4,0.1791 0.4,0.4 v 11.2 c 0,0.2209 -0.179,0.4 -0.4,0.4 z m -104,0 H 24.4 C 24.1791,36 24,35.8209 24,35.6 V 24.4 C 24,24.1791 24.1791,24 24.4,24 h 11.2 c 0.2209,0 0.4,0.1791 0.4,0.4 v 11.2 c 0,0.2209 -0.1791,0.4 -0.4,0.4 z m 16,-8 H 48.4 C 48.1791,28 48,27.8209 48,27.6 V 24.4 C 48,24.1791 48.1791,24 48.4,24 h 3.2 c 0.2209,0 0.4,0.1791 0.4,0.4 v 3.2 c 0,0.2209 -0.1791,0.4 -0.4,0.4 z m 60,-8 h -3.2 c -0.221,0 -0.4,-0.1791 -0.4,-0.4 v -3.2 c 0,-0.2209 0.179,-0.4 0.4,-0.4 h 3.2 c 0.221,0 0.4,0.1791 0.4,0.4 v 3.2 c 0,0.2209 -0.179,0.4 -0.4,0.4 z m -28,0 H 80.4 C 80.1791,20 80,19.8209 80,19.6 V 16.4 C 80,16.1791 80.1791,16 80.4,16 h 3.2 c 0.2209,0 0.4,0.1791 0.4,0.4 v 3.2 c 0,0.2209 -0.1791,0.4 -0.4,0.4 z"
           id="path7" />
      </g>
    </g>
    <text
       xml:space="preserve"
       style="font-weight:bold;font-size:212.126px;line-height:normal;font-family:'Noto Sans';-inkscape-font-specification:'Noto Sans Bold';text-align:center;text-decoration-color:#000000;text-anchor:middle;fill:#352087;fill-opacity:1;stroke:#ffffff;stroke-width:34.7791;stroke-dasharray:none;paint-order:stroke fill markers;stop-color:#000000"
       x="360.00009"
       y="427.77411"
       id="text7"><tspan
         sodipodi:role="line"
         id="tspan7"
         x="360.00009"
         y="427.77411"
         style="stroke-width:34.7791;stroke-dasharray:none">@</tspan></text>
  </g>
</svg>
